<svg viewBox="0 0 800 600" xmlns="http://www.w3.org/2000/svg"><defs/><g><path d="M433.2901,163.8956 C423.9061,163.0643 411.8332,164.0394 399.6698,164.6516 C394.8258,164.8954 389.9499,165.0171 385.6113,166.454 C382.4474,167.5017 379.5037,169.147 377.111,171.5368 L344.7189,212.9066 L287.5641,241.484 L261.06,277.8455 C276.3061,264.7525 292.6333,253.1312 310.1269,243.7167 C324.2653,236.1079 339.1892,230.0278 354.5167,225.3006 C363.0484,222.6694 371.6854,220.4379 380.2774,218.004 C385.8516,216.425 391.4007,214.778 396.9571,213.7583 C400.7068,213.0701 404.4084,212.5526 408.178,213.7583 C418.5059,217.0617 428.7054,232.4913 435.4641,251.6104 L438.2408,164.6516 C436.6399,164.2755 435.0112,164.048 433.2901,163.8956 Z" fill="rgb(8,4,4)" opacity="1"/><path d="M375.769,169.4225 L343.7338,210.8738 L287.0528,239.3272 C283.763,226.5708 281.605,213.679 281.4104,200.5887 C281.2243,188.0627 282.3626,175.5525 283.6213,163.0045 C284.738,151.8717 286.0155,140.8057 290.5696,133.9479 C292.9072,130.4278 295.9622,128.0439 300.0446,126.9995 C309.7832,124.5083 324.3558,130.5064 338.2604,138.6854 C352.2698,146.9258 364.4692,157.4929 375.769,169.4225 Z" fill="rgb(8,4,4)" opacity="1"/><path d="M280.0952,369.8358 C278.4047,366.4108 277.3032,362.7703 276.7188,359.0412 C276.0107,354.5226 276.0975,349.8914 276.7142,345.3129 C277.1745,341.8953 277.9279,338.5242 278.941,335.2297 C281.2475,327.7286 284.8143,320.7059 289.7415,314.7142 C293.7477,309.8425 298.5985,305.6905 303.8262,302.0135 C306.852,299.8852 309.9887,297.9226 313.2137,296.0984 C318.295,293.2242 323.5706,290.6863 329.0157,288.5314 C335.7646,285.8606 342.7611,283.7998 349.7526,281.6768 C357.4495,279.3395 365.1554,276.9735 372.4571,277.0857 C377.2405,277.1592 381.814,278.3029 386.2615,279.916 C389.6233,281.1354 392.8796,282.6425 396.175,284.0682 C403.0662,287.0493 410.0805,289.6254 415.6026,294.0436 C420.0977,297.6401 423.5348,302.2825 425.0192,307.5943 C427.46,316.3282 424.7328,326.0421 417.8993,332.8584 C413.6675,337.0796 408.0519,339.9743 402.5112,343.1937 C398.2059,345.6953 393.9719,348.4811 389.8792,351.4619 C381.0042,357.9258 373.0088,365.613 364.7888,373.5463 C361.0484,377.1564 357.3964,380.8434 354.9051,385.2271 C350.0748,393.7264 349.8329,404.4289 353.5573,414.4291 C355.0076,418.3231 357.0033,422.0668 360.0329,425.0824 L338.4619,407.5859 L318.3472,395.5171 L300.7734,384.0835 L284.0464,373.7086 L280.0952,369.8358 Z" fill="rgb(8,4,4)" opacity="1"/><path d="M411.977,340.8087 C406.2778,342.6234 399.4586,346.6501 393.8764,351.1519 C388.1561,355.7651 383,361.0215 377.8772,366.3753 C374.9669,369.4169 372.0614,372.4642 369.0859,375.4401 C365.9451,378.5814 362.7212,381.6166 360.1598,385.1492 C357.726,388.5059 355.9117,392.2751 354.992,396.2678 C353.8558,401.2003 354.0961,406.3956 355.5242,411.3188 C357.2668,417.3261 360.7312,422.8184 364.7231,427.9643 C369.4375,434.0417 374.7945,439.5745 380.7452,444.4214 C390.9317,452.7184 402.5335,458.9567 415.0848,462.1911 C424.2495,464.5528 433.7912,465.2694 443.3833,465.2467 C449.8961,465.2314 456.3753,464.8545 462.7439,463.8126 C479.5724,461.0597 495.4519,453.328 506.4738,442.4831 C510.4117,438.6085 513.7002,434.3392 516.1023,429.6385 C517.5556,426.7947 518.6404,423.8171 519.7863,420.838 C522.0106,415.0547 524.3618,409.3648 525.1075,403.4416 C525.8503,397.5414 525.0279,391.5048 522.4469,386.25 C520.0315,381.3324 516.1231,377.1851 512.0091,373.1515 C505.0716,366.3498 497.7825,360.01 489.9055,354.5272 C485.5637,351.5052 481.0411,348.7543 476.6024,345.9314 C472.7049,343.4526 468.8101,340.9653 464.9958,338.3589 C462.6014,339.682 460.7389,341.7287 459.5232,344.0119 C458.4218,346.0805 457.908,348.2797 457.676,350.8728 C456.9367,359.1383 459.5826,371.3318 464.2731,380.9555 C467.6171,387.8164 471.5896,394.2803 474.3007,401.2745 C476.7115,407.4941 477.7833,413.832 475.0923,417.6352 C473.2919,420.1799 469.7202,421.4063 466.3842,423.1768 C462.0705,425.4662 458.1147,428.5875 453.9817,431.3572 C451.8573,432.7808 449.6941,434.0977 447.3846,435.0515 C442.8486,436.9249 437.8895,437.3156 433.6627,435.5793 C430.3241,434.2079 427.5481,431.5177 424.4268,429.2461 C421.1227,426.8414 417.4741,424.9143 413.8715,422.9129 C410.5363,421.0601 407.2282,419.2134 405.6911,416.3158 C403.3668,411.9343 404.9955,405.4591 407.8021,399.1634 C409.9731,394.2937 412.6547,389.6628 415.1909,384.9137 C419.1174,377.5611 422.3044,369.7571 423.3712,361.9559 C424.1029,356.6061 423.6846,351.265 421.7879,346.6507 C420.5084,343.5379 418.5725,340.9227 416.2464,340.3175 C414.8909,339.9648 413.4887,340.3273 411.977,340.8087 Z" fill="rgb(8,4,4)" opacity="1"/><path d="M418.476,386.7713 C421.3058,384.9095 428.4129,388.6541 436.0271,389.2957 C443.6954,389.942 451.781,387.188 459.8293,387.1319 C461.6503,387.1192 463.4738,387.2271 465.2389,387.733 C465.0578,389.5885 465.6232,391.4062 466.5612,392.9021 C467.5817,394.5295 469.2214,395.7659 470.4081,397.4702 C472.732,400.808 473.3875,405.7829 473.173,410.8139 C473.0493,413.7146 472.6496,416.5728 471.0091,418.3873 C468.6722,420.9722 463.7962,421.1941 460.1765,423.6032 C457.7233,425.2359 455.869,427.8538 453.3573,429.4819 C451.225,430.864 448.6278,431.5272 446.0677,432.3036 C443.8641,432.9719 441.6984,433.7077 439.4836,433.9497 C435.3873,434.3971 431.2737,433.2509 428.1965,430.6576 C426.2668,429.0314 424.7945,426.839 422.7881,425.2492 C419.9542,423.0038 416.0536,422.0178 412.6768,420.076 C410.4174,418.7768 408.4117,417.0918 407.5036,414.9027 C406.6627,412.8757 406.7931,410.4838 407.2684,408.0835 C408.0456,404.1585 409.7053,400.2869 411.9714,396.7964 C413.4723,394.4844 415.2706,392.2866 416.4392,389.9772 C417.0709,388.7286 417.4845,387.4236 418.476,386.7713 Z" fill="rgb(8,4,4)" opacity="1"/><path d="M420.7989,385.1894 C426.4421,385.0727 432.606,387.3573 439.0981,387.6419 C444.4038,387.8745 449.7896,386.8522 455.2132,386.3158 C457.9437,386.0458 460.6867,385.9095 463.4342,385.944 C462.1567,382.8936 461.0025,379.7977 459.8498,376.7001 C457.0527,369.1839 454.4828,361.6475 454.9449,354.2506 C455.346,347.8274 457.9323,341.6191 462.6864,336.7548 L438.7536,314.6125 C438.6044,308.9944 438.404,303.3821 438.181,297.7523 C437.5923,282.8889 436.8195,267.904 436.0167,252.9493 C436.1045,252.6215 436.1719,252.3437 436.1674,252.3381 C436.1484,252.3145 434.7558,256.304 434.06,263.6654 C433.6355,268.1575 433.7638,272.6784 433.1103,277.1048 C432.4613,281.4999 431.0804,285.7514 428.2283,288.6337 C425.6515,291.2376 421.9776,292.8324 417.9901,292.4971 C421.1549,295.6374 423.9996,299.074 425.8333,302.7737 C426.8692,304.8637 427.5724,307.015 427.9981,309.2526 C428.872,313.846 428.4911,318.625 426.9362,323.0583 C424.8112,329.1166 420.5518,334.3714 415.1174,338.6888 C417.9221,338.7889 420.4167,340.0053 421.9825,341.9548 C423.2651,343.5516 423.8644,345.6758 424.3937,347.8376 C425.3803,351.8662 426.0142,355.9207 425.7985,360.1994 C425.3802,368.4946 421.6294,377.3423 416.8081,385.7658 C418.0763,385.3243 419.428,385.2178 420.7989,385.1894 Z" fill="rgb(8,4,4)" opacity="1"/></g><g><path d="M439.6968,165.6642 L440.288,313.4868 C446.1882,319.8506 452.9925,325.3205 459.8006,330.6343 C474.6896,342.2553 491.4078,351.5238 505.9213,363.1552 C516.2709,371.4496 525.3939,380.7929 527.799,390.3546 C529.092,395.4949 528.3632,400.6015 527.2077,405.7281 C525.5306,413.1698 522.8745,420.5224 519.521,427.6059 C538.7065,410.1641 559.5193,394.7919 581.6065,381.4852 C605.7474,366.9413 631.3566,354.9057 658.0406,345.272 C647.4925,326.0068 636.4717,307.0054 624.8239,288.4266 C615.9331,274.2452 606.6861,260.3047 596.98,246.671 L533.7119,220.6542 L501.9748,168.751 C492.2911,166.2091 482.4167,164.695 472.4784,164.1381 C461.5607,163.5262 450.5929,164.0741 439.6968,165.6642 Z" fill="rgb(8,4,4)" opacity="1"/><path d="M552.7836,134.9432 C560.837,131.2225 568.8026,127.2068 575.7493,126.7941 C579.5235,126.5699 582.9951,127.5576 585.3801,129.387 C586.5895,130.3147 587.4708,131.4687 588.3434,132.7207 C603.0241,153.7844 599.8073,198.5898 596.8629,244.9564 L535.3741,217.9161 L505.0001,167.5397 C512.6646,158.7949 521.1599,150.991 530.9291,145.3148 C537.8923,141.269 545.4276,138.3417 552.7836,134.9432 Z" fill="rgb(8,4,4)" opacity="1"/></g><g><path d="M223.0818,347.3496 C229.3002,332.4239 236.0971,317.8558 244.1877,304.093 C249.6768,294.7556 255.77,285.729 263.2131,279.3911 C267.3075,275.9048 271.7904,273.2409 276.0598,270.1981 C279.4381,267.7904 282.6661,265.1706 285.9799,262.6659 C290.73,259.0755 295.7013,255.7216 300.8696,252.5837 C314.9181,244.054 330.4341,237.2593 346.7734,231.7945 C356.3929,228.5772 366.1849,225.926 375.8846,222.9346 C387.7141,219.2864 399.1089,215.2385 408.16,218.5046 C415.3615,221.1033 420.6922,228.1921 424.6141,236.2245 C427.2525,241.6281 429.142,247.3735 430.3098,253.3114 C431.5983,259.8631 431.9712,266.492 430.9427,272.9298 C429.5742,281.4951 426.0206,289.0302 420.1842,290.6497 C415.3186,291.9997 409.2544,288.9496 403.0972,285.5868 C394.6637,280.9809 386.5131,275.9989 377.7831,274.8284 C368.8744,273.6338 359.437,276.5651 349.9377,279.2583 C337.756,282.712 325.5791,285.8514 314.498,291.2825 C298.9774,298.8895 285.975,310.5509 279.0584,325.4565 C272.6017,339.3708 271.5479,355.5487 277.1598,371.0218 C267.6558,364.91 257.7447,359.5177 247.4158,355.2005 C239.5402,351.9087 231.431,349.2285 223.0818,347.3496 Z" fill="rgb(8,4,4)" opacity="1"/><path d="M495.1257,319.6135 L502.3086,307.3 L509.2116,319.8001 L495.1257,319.6135 Z" fill="rgb(8,4,4)" opacity="1"/><path d="M482.066,310.565 L489.2488,298.2515 L496.1518,310.7515 L482.066,310.565 Z" fill="rgb(8,4,4)" opacity="1"/><path d="M479.2675,323.718 L486.4503,311.4045 L493.3533,323.9045 L479.2675,323.718 Z" fill="rgb(8,4,4)" opacity="1"/><path d="M470.728,302.6525 C472.6176,298.9485 475.1137,295.6811 478.1827,293.0078 C481.1448,290.4275 484.5501,288.4286 488.2627,287.322 C492.8092,285.9668 497.6383,285.9484 502.0209,287.4904 C506.506,289.0686 510.3275,292.2008 513.107,296.101 C518.5852,303.7882 519.636,313.3211 515.5404,320.847 C512.9005,325.6978 508.1882,329.2246 502.7369,331.292 C497.3347,333.3407 491.5331,333.7418 486.227,332.3028 C475.8093,329.4774 469.036,319.8989 469.0434,311.4128 C469.0447,309.8124 469.3177,308.3079 469.7172,306.6957 L470.5495,303.337" fill="rgb(8,4,4)" opacity="1"/><path d="M361.0204,302.4352 C362.9161,298.7735 365.4144,295.5504 368.4751,292.9187 C371.4424,290.3674 374.8494,288.3996 378.5551,287.3086 C383.1031,285.9697 387.9259,285.9506 392.3133,287.4749 C396.7887,289.0297 400.6177,292.1114 403.3994,295.9708 C408.8569,303.5428 409.9069,312.9696 405.8328,320.3875 C403.1948,325.1907 398.4712,328.6539 393.0293,330.6935 C387.6171,332.7219 381.8242,333.1226 376.5195,331.6908 C366.1246,328.8852 359.3552,319.3125 359.3358,311.0789 C359.332,309.4924 359.6102,308.015 360.0096,306.4246 L360.8419,303.1105" fill="rgb(8,4,4)" opacity="1"/></g><g/></svg>