<svg viewBox="0 0 800 600" xmlns="http://www.w3.org/2000/svg"><defs/><g><path d="M434.0021,162.392 C424.618,161.5608 412.5452,162.5358 400.3818,163.148 C395.5378,163.3918 390.6619,163.5136 386.3232,164.9504 C383.1594,165.9982 380.2156,167.6435 377.8229,170.0333 L345.4308,211.403 L288.276,239.9804 L261.7719,276.3419 C277.0181,263.249 293.3452,251.6277 310.8389,242.2131 C324.9773,234.6043 339.9011,228.5243 355.2287,223.7971 C363.7603,221.1658 372.3973,218.9344 380.9894,216.5005 C386.5636,214.9215 392.1126,213.2745 397.6691,212.2547 C401.4188,211.5666 405.1203,211.049 408.8899,212.2547 C419.2179,215.5582 429.4173,230.9877 436.176,250.1068 L438.9527,163.148 C437.3518,162.7719 435.7231,162.5445 434.0021,162.392 Z" fill="rgb(255,255,255)" opacity="1"/><path d="M374.2655,165.1508 L342.2303,206.6021 L285.5492,235.0556 C282.2595,222.2992 280.1014,209.4074 279.9069,196.317 C279.7207,183.791 280.859,171.2808 282.1177,158.7329 C283.2344,147.6001 284.512,136.5341 289.0661,129.6762 C291.4036,126.1561 294.4586,123.7722 298.5411,122.7279 C308.2796,120.2366 322.8522,126.2348 336.7569,134.4137 C350.7662,142.6542 362.9656,153.2212 374.2655,165.1508 Z" fill="rgb(255,255,255)" opacity="1"/><path d="M280.0952,369.8358 C278.4047,366.4108 277.3032,362.7703 276.7188,359.0412 C276.0107,354.5226 276.0975,349.8914 276.7142,345.3129 C277.1745,341.8953 277.9279,338.5242 278.941,335.2297 C281.2475,327.7286 284.8143,320.7059 289.7415,314.7142 C293.7477,309.8425 298.5985,305.6905 303.8262,302.0135 C306.852,299.8852 309.9887,297.9226 313.2137,296.0984 C318.295,293.2242 323.5706,290.6863 329.0157,288.5314 C335.7646,285.8606 342.7611,283.7998 349.7526,281.6768 C357.4495,279.3395 365.1554,276.9735 372.4571,277.0857 C377.2405,277.1592 381.814,278.3029 386.2615,279.916 C389.6233,281.1354 392.8796,282.6425 396.175,284.0682 C403.0662,287.0493 410.0805,289.6254 415.6026,294.0436 C420.0977,297.6401 423.5348,302.2825 425.0192,307.5943 C427.46,316.3282 424.7328,326.0421 417.8993,332.8584 C413.6675,337.0796 408.0519,339.9743 402.5112,343.1937 C398.2059,345.6953 393.9719,348.4811 389.8792,351.4619 C381.0042,357.9258 373.0088,365.613 364.7888,373.5463 C361.0484,377.1564 357.3964,380.8434 354.9051,385.2271 C350.0748,393.7264 349.8329,404.4289 353.5573,414.4291 C355.0076,418.3231 357.0033,422.0668 360.0329,425.0824 L338.4619,407.5859 L318.3472,395.5171 L300.7734,384.0835 L284.0464,373.7086 L280.0952,369.8358 Z" fill="rgb(255,255,255)" opacity="1"/><path d="M412.7492,340.8087 C407.05,342.6234 400.2308,346.6501 394.6486,351.1519 C388.9283,355.7651 383.7722,361.0215 378.6495,366.3753 C375.7392,369.4169 372.8337,372.4642 369.8582,375.4401 C366.7173,378.5814 363.4935,381.6166 360.9321,385.1492 C358.4982,388.5059 356.684,392.2751 355.7643,396.2678 C354.6281,401.2003 354.8684,406.3956 356.2965,411.3188 C358.0391,417.3261 361.5035,422.8184 365.4953,427.9643 C370.2098,434.0417 375.5668,439.5745 381.5175,444.4214 C391.704,452.7184 403.3058,458.9567 415.8571,462.1911 C425.0218,464.5528 434.5635,465.2694 444.1556,465.2467 C450.6683,465.2314 457.1476,464.8545 463.5162,463.8126 C480.3446,461.0597 496.2241,453.328 507.2461,442.4831 C511.184,438.6085 514.4724,434.3392 516.8746,429.6385 C518.3278,426.7947 519.4127,423.8171 520.5585,420.838 C522.7829,415.0547 525.1341,409.3648 525.8798,403.4416 C526.6226,397.5414 525.8002,391.5048 523.2191,386.25 C520.8038,381.3324 516.8953,377.1851 512.7813,373.1515 C505.8439,366.3498 498.5548,360.01 490.6777,354.5272 C486.336,351.5052 481.8134,348.7543 477.3747,345.9314 C473.4771,343.4526 469.5824,340.9653 465.7681,338.3589 C463.3737,339.682 461.5112,341.7287 460.2955,344.0119 C459.1941,346.0805 458.6803,348.2797 458.4483,350.8728 C457.7089,359.1383 460.3548,371.3318 465.0454,380.9555 C468.3893,387.8164 472.3619,394.2803 475.0729,401.2745 C477.4838,407.4941 478.5555,413.832 475.8646,417.6352 C474.0641,420.1799 470.4924,421.4063 467.1564,423.1768 C462.8428,425.4662 458.887,428.5875 454.7539,431.3572 C452.6295,432.7808 450.4664,434.0977 448.1569,435.0515 C443.6209,436.9249 438.6618,437.3156 434.4349,435.5793 C431.0963,434.2079 428.3203,431.5177 425.199,429.2461 C421.8949,426.8414 418.2464,424.9143 414.6437,422.9129 C411.3086,421.0601 408.0005,419.2134 406.4633,416.3158 C404.139,411.9343 405.7678,405.4591 408.5744,399.1634 C410.7454,394.2937 413.427,389.6628 415.9631,384.9137 C419.8897,377.5611 423.0766,369.7571 424.1435,361.9559 C424.8751,356.6061 424.4569,351.265 422.5602,346.6507 C421.2807,343.5379 419.3447,340.9227 417.0187,340.3175 C415.6631,339.9648 414.261,340.3273 412.7492,340.8087 Z" fill="rgb(255,255,255)" opacity="1"/><path d="M418.476,386.7713 C421.3058,384.9095 428.4129,388.6541 436.0271,389.2957 C443.6954,389.942 451.781,387.188 459.8293,387.1319 C461.6503,387.1192 463.4738,387.2271 465.2389,387.733 C465.0578,389.5885 465.6232,391.4062 466.5612,392.9021 C467.5817,394.5295 469.2214,395.7659 470.4081,397.4702 C472.732,400.808 473.3875,405.7829 473.173,410.8139 C473.0493,413.7146 472.6496,416.5728 471.0091,418.3873 C468.6722,420.9722 463.7962,421.1941 460.1765,423.6032 C457.7233,425.2359 455.869,427.8538 453.3573,429.4819 C451.225,430.864 448.6278,431.5272 446.0677,432.3036 C443.8641,432.9719 441.6984,433.7077 439.4836,433.9497 C435.3873,434.3971 431.2737,433.2509 428.1965,430.6576 C426.2668,429.0314 424.7945,426.839 422.7881,425.2492 C419.9542,423.0038 416.0536,422.0178 412.6768,420.076 C410.4174,418.7768 408.4117,417.0918 407.5036,414.9027 C406.6627,412.8757 406.7931,410.4838 407.2684,408.0835 C408.0456,404.1585 409.7053,400.2869 411.9714,396.7964 C413.4723,394.4844 415.2706,392.2866 416.4392,389.9772 C417.0709,388.7286 417.4845,387.4236 418.476,386.7713 Z" fill="rgb(255,255,255)" opacity="1"/><path d="M420.7989,385.1894 C426.4421,385.0727 432.606,387.3573 439.0981,387.6419 C444.4038,387.8745 449.7896,386.8522 455.2132,386.3158 C457.9437,386.0458 460.6867,385.9095 463.4342,385.944 C462.1567,382.8936 461.0025,379.7977 459.8498,376.7001 C457.0527,369.1839 454.4828,361.6475 454.9449,354.2506 C455.346,347.8274 457.9323,341.6191 462.6864,336.7548 L438.7536,314.6125 C438.6044,308.9944 438.404,303.3821 438.181,297.7523 C437.5923,282.8889 436.8195,267.904 436.0167,252.9493 C436.1045,252.6215 436.1719,252.3437 436.1674,252.3381 C436.1484,252.3145 434.7558,256.304 434.06,263.6654 C433.6355,268.1575 433.7638,272.6784 433.1103,277.1048 C432.4613,281.4999 431.0804,285.7514 428.2283,288.6337 C425.6515,291.2376 421.9776,292.8324 417.9901,292.4971 C421.1549,295.6374 423.9996,299.074 425.8333,302.7737 C426.8692,304.8637 427.5724,307.015 427.9981,309.2526 C428.872,313.846 428.4911,318.625 426.9362,323.0583 C424.8112,329.1166 420.5518,334.3714 415.1174,338.6888 C417.9221,338.7889 420.4167,340.0053 421.9825,341.9548 C423.2651,343.5516 423.8644,345.6758 424.3937,347.8376 C425.3803,351.8662 426.0142,355.9207 425.7985,360.1994 C425.3802,368.4946 421.6294,377.3423 416.8081,385.7658 C418.0763,385.3243 419.428,385.2178 420.7989,385.1894 Z" fill="rgb(255,255,255)" opacity="1"/></g><g><path d="M440.0463,163.1351 L440.6376,310.9577 C446.5377,317.3215 453.3421,322.7914 460.1502,328.1052 C475.0392,339.7262 491.7573,348.9947 506.2708,360.6261 C516.6204,368.9205 525.7435,378.2638 528.1486,387.8255 C529.4416,392.9658 528.7127,398.0724 527.5573,403.1991 C525.8801,410.6407 523.224,417.9933 519.8705,425.0768 C539.056,407.635 559.8689,392.2628 581.956,378.9561 C606.0969,364.4122 631.7062,352.3766 658.3902,342.7429 C647.842,323.4777 636.8213,304.4763 625.1735,285.8975 C616.2826,271.7161 607.0356,257.7756 597.3296,244.1419 L534.0615,218.1251 L502.3244,166.2219 C492.6406,163.6801 482.7662,162.1659 472.8279,161.609 C461.9103,160.9972 450.9425,161.545 440.0463,163.1351 Z" fill="rgb(255,255,255)" opacity="1"/><path d="M550.504,130.7117 C558.3998,126.6671 566.1958,122.3314 573.12,121.637 C576.882,121.2597 580.3908,122.1057 582.8481,123.8368 C584.0942,124.7146 585.0216,125.8319 585.9443,127.0475 C601.4681,147.4978 600.0728,192.3968 599.0131,238.8448 L536.4773,214.323 L504.0832,165.2211 C511.3864,156.1724 519.558,148.0301 529.0886,141.962 C535.8819,137.6368 543.2921,134.406 550.504,130.7117 Z" fill="rgb(255,255,255)" opacity="1"/></g><g><path d="M223.0978,344.8498 C229.3162,329.9241 236.113,315.356 244.2037,301.5932 C249.6928,292.2558 255.786,283.2292 263.2291,276.8913 C267.3234,273.405 271.8063,270.7411 276.0758,267.6983 C279.454,265.2906 282.6821,262.6708 285.9959,260.1661 C290.746,256.5757 295.7173,253.2218 300.8856,250.0839 C314.9341,241.5543 330.4501,234.7595 346.7894,229.2947 C356.4088,226.0774 366.2009,223.4262 375.9006,220.4348 C387.7301,216.7866 399.1249,212.7387 408.176,216.0048 C415.3775,218.6035 420.7082,225.6923 424.6301,233.7247 C427.2685,239.1283 429.158,244.8737 430.3258,250.8116 C431.6143,257.3633 431.9872,263.9922 430.9586,270.43 C429.5902,278.9954 426.0366,286.5304 420.2002,288.1499 C415.3346,289.4999 409.2703,286.4498 403.1132,283.0871 C394.6797,278.4811 386.529,273.4991 377.7991,272.3286 C368.8904,271.134 359.453,274.0653 349.9537,276.7585 C337.772,280.2122 325.5951,283.3516 314.514,288.7827 C298.9934,296.3897 285.991,308.0511 279.0743,322.9567 C272.6177,336.871 271.5639,353.0489 277.1758,368.522 C267.6718,362.4102 257.7607,357.0179 247.4318,352.7007 C239.5562,349.4089 231.447,346.7287 223.0978,344.8498 Z" fill="rgb(255,255,255)" opacity="1"/><path d="M493.2458,284.152 C494.6935,282.8093 496.6108,282.0347 498.7348,281.516 C502.3601,280.6306 506.4913,280.5295 510.5759,280.2234 C517.6141,279.696 524.6502,278.5648 529.0793,279.8958 C530.8419,280.4255 532.1641,281.3311 533.4255,282.3524 C537.5894,285.7234 540.4054,290.2636 540.3331,294.995 C540.2739,298.8705 538.2226,302.6381 535.6255,306.0687 C532.2025,310.5901 527.9002,314.2824 522.822,316.3746 C517.4994,318.5675 511.6663,318.8781 506.3121,317.372 C495.9441,314.4555 489.1651,304.8962 489.1285,296.76 C489.1213,295.17 489.4028,293.6966 489.8023,292.1057 L490.6346,288.7917 C491.0948,286.9593 491.9604,285.3442 493.2458,284.152 Z" fill="rgb(11,3,100)" opacity="1"/></g><g/></svg>